Coordinates
version=1
nRows=16
nColumns=40
inDegrees=yes

Units are S.I. units (second, meters, Newtons, ...)
Angles are in degrees.

endheader
time	pelvis_tilt	pelvis_list	pelvis_rotation	pelvis_tx	pelvis_ty	pelvis_tz	hip_flexion_r	hip_adduction_r	hip_rotation_r	knee_angle_r	knee_angle_r_beta	ankle_angle_r	subtalar_angle_r	mtp_angle_r	hip_flexion_l	hip_adduction_l	hip_rotation_l	knee_angle_l	knee_angle_l_beta	ankle_angle_l	subtalar_angle_l	mtp_angle_l	lumbar_extension	lumbar_bending	lumbar_rotation	arm_flex_r	arm_add_r	arm_rot_r	elbow_flex_r	pro_sup_r	wrist_flex_r	wrist_dev_r	arm_flex_l	arm_add_l	arm_rot_l	elbow_flex_l	pro_sup_l	wrist_flex_l	wrist_dev_l
     17.01000000	     -2.44702016	     -5.23587473	      2.45514550	      0.86205092	      0.93308555	      0.48241831	      8.87458414	      5.34735518	    -14.94518342	     13.20998337	     13.20998337	      9.08875230	     -1.54399096	     -5.39351531	     31.11102911	    -11.37307326	      0.66737450	     56.76905978	     56.76905978	     11.49321619	    -19.00855887	     17.05351453	     -8.87692363	      7.01895902	      4.52041643	     30.20334137	    -15.08794880	     -6.58618242	     52.64637086	     45.39996864	      0.00000000	      0.00000000	      5.85340405	     -6.39240805	      1.00746993	     23.32770971	     45.00326039	      0.00000000	      0.00000000
     17.02214286	     -2.49736844	     -5.14881199	      2.63814213	      0.86061322	      0.93307635	      0.48270501	      8.36951232	      5.33291132	    -14.94981667	     12.98025572	     12.98025572	      9.34972051	     -1.59399696	     -5.49970079	     31.83243093	    -11.30669937	      0.35555690	     53.67593294	     53.67593294	     11.91104709	    -19.07132755	     17.20191766	     -8.89763086	      6.92570869	      4.33266983	     31.90831915	    -15.02941514	     -6.79042613	     54.59310873	     45.34986653	      0.00000000	      0.00000000	      4.47360079	     -6.36255497	      0.99390801	     22.83693310	     44.99595390	      0.00000000	      0.00000000
     17.03428571	     -2.58356486	     -5.13420218	      2.84328935	      0.85920391	      0.93293272	      0.48296743	      7.91992780	      5.37192905	    -15.13433879	     12.77643684	     12.77643684	      9.62860206	     -1.40301470	     -5.58170587	     32.36353129	    -11.23581998	      0.08677161	     50.20807475	     50.20807475	     11.94753221	    -19.06916944	     16.78744438	     -8.96319489	      6.91807565	      4.61855691	     32.67611286	    -15.55078149	     -6.99696128	     58.66046327	     45.23236486	      0.00000000	      0.00000000	      3.19311430	     -6.29884876	      1.11417203	     22.81991782	     45.00453219	      0.00000000	      0.00000000
     17.04642857	     -2.74823896	     -5.06526675	      3.01633410	      0.85773371	      0.93264624	      0.48308216	      7.58390491	      5.34950523	    -15.16831790	     12.61304223	     12.61304223	      9.90716710	     -1.42638331	     -5.62416403	     32.78351417	    -10.96884714	     -0.08375970	     46.53070159	     46.53070159	     12.04365296	    -19.02463221	     17.12139477	     -8.84285844	      6.87392233	      4.74503588	     34.48790201	    -15.84199764	     -7.17356692	     59.84105422	     45.20893063	      0.00000000	      0.00000000	      2.02063449	     -6.12585340	      1.18274267	     22.34389121	     44.97558586	      0.00000000	      0.00000000
     17.05857143	     -2.72394757	     -5.04463080	      3.24930584	      0.85652338	      0.93262519	      0.48307863	      6.94308461	      5.37473927	    -15.50447283	     12.28591991	     12.28591991	     10.24090043	     -0.93730042	     -5.58815374	     32.77458244	    -10.63713390	     -0.07608974	     42.60753542	     42.60753542	     11.82999613	    -18.87114001	     16.84608523	     -8.99479338	      6.91587418	      4.28210922	     35.99379407	    -15.48269095	     -7.21064224	     62.65366344	     45.12667834	      0.00000000	      0.00000000	      0.60214007	     -6.17184959	      1.41597185	     21.86914271	     44.92064853	      0.00000000	      0.00000000
     17.07071429	     -2.86400628	     -4.93481849	      3.40052844	      0.85527456	      0.93234084	      0.48295764	      6.54796157	      5.29105631	    -15.61384063	     12.08480108	     12.08480108	     10.52710385	     -0.79671952	     -5.61519761	     32.81208436	    -10.14528646	     -0.01127682	     38.66959653	     38.66959653	     11.61233754	    -18.53605916	     17.01945261	     -8.88843315	      6.81698447	      4.46284977	     37.46364709	    -15.78223069	     -7.34946626	     64.01449430	     45.09525293	      0.00000000	      0.00000000	     -0.49511195	     -6.09588285	      1.50631341	     21.59578084	     44.88657723	      0.00000000	      0.00000000
     17.08285714	     -2.89596575	     -4.97882816	      3.63569404	      0.85424779	      0.93207394	      0.48260338	      5.91707082	      5.32844911	    -16.29976595	     11.69753963	     11.69753963	     10.90505420	      0.30337785	     -5.55496545	     32.65601441	     -9.74149656	      0.25686517	     34.71297146	     34.71297146	     10.70798893	    -18.06099430	     15.41737171	     -8.99244534	      6.98670631	      4.35480347	     38.44633901	    -15.87886389	     -7.44740892	     67.44044065	     45.00001207	      0.00000000	      0.00000000	     -1.86614446	     -6.10583502	      1.92533523	     21.77003862	     44.78939275	      0.00000000	      0.00000000
     17.09500000	     -2.98748775	     -4.92475903	      3.79804987	      0.85323069	      0.93177182	      0.48225190	      5.43731814	      5.30076077	    -16.44417004	     11.45074365	     11.45074365	     11.19031438	      0.50163512	     -5.56141094	     32.52235030	     -9.28909670	      0.40803465	     30.98106260	     30.98106260	     10.36252152	    -16.88790840	     15.30151086	     -8.90901589	      6.96492919	      4.52946394	     39.69106266	    -16.17682451	     -7.60787435	     68.67247273	     44.97519504	      0.00000000	      0.00000000	     -2.93480339	     -6.08452015	      2.09083348	     21.59686625	     44.74104008	      0.00000000	      0.00000000
     17.10714286	     -3.24030119	     -5.18168367	      4.03979980	      0.85211116	      0.93094051	      0.48182448	      5.20389483	      5.58475477	    -16.70347012	     11.27366826	     11.27366826	     11.40701641	      0.64663225	     -5.62823691	     32.85863678	     -9.13546392	      0.72646314	     27.87926643	     27.87926643	     10.18340715	    -15.17064487	     15.39253352	     -8.61265658	      7.31509451	      4.67052116	     41.11111212	    -16.57681496	     -7.80121394	     69.61394057	     44.95918140	      0.00000000	      0.00000000	     -3.91900485	     -5.92344240	      2.15584419	     21.40939747	     44.71020059	      0.00000000	      0.00000000
     17.11928571	     -3.23060242	     -4.99983444	      4.21023944	      0.85150556	      0.93087770	      0.48115574	      4.37108605	      5.44584881	    -17.00108555	     10.64569683	     10.64569683	     11.65843069	      1.35919254	     -5.60254581	     32.45568103	     -8.65140901	      0.52334363	     24.48487492	     24.48487492	      9.80888972	    -13.09409956	     15.07919771	     -8.64648850	      7.19339835	      4.46269814	     42.10638550	    -16.31278477	     -7.80709729	     71.30029880	     44.91140854	      0.00000000	      0.00000000	     -5.02540096	     -5.93517090	      2.29367050	     21.36919286	     44.66136343	      0.00000000	      0.00000000
     17.13142857	     -3.17743876	     -5.15071955	      4.43093350	      0.85110912	      0.93044672	      0.48043283	      3.54743046	      5.59888870	    -17.89534370	     10.15584592	     10.15584592	     12.17750905	      2.95706932	     -5.19400731	     32.18111005	     -8.53740707	      0.27140093	     21.53173503	     21.53173503	      8.11812874	    -11.15296339	     11.19922809	     -8.76886289	      7.44562818	      4.79574011	     42.35648918	    -16.93380461	     -8.18129038	     74.90454364	     44.85016511	      0.00000000	      0.00000000	     -6.51721011	     -6.22577182	      3.68479641	     22.99546749	     44.38542918	      0.00000000	      0.00000000
     17.14357143	     -3.28217186	     -5.20184982	      4.62733816	      0.85055153	      0.92994768	      0.47962785	      2.94714455	      5.70542045	    -18.08308716	      9.69407941	      9.69407941	     12.38853598	      3.26769695	     -5.18662107	     32.19149370	     -8.28564110	      0.05160132	     19.22950900	     19.22950900	      7.75828267	     -9.23552445	     11.42652161	     -8.58412767	      7.56100481	      4.66723604	     43.38734006	    -16.89105603	     -8.25764799	     75.73144396	     44.83554398	      0.00000000	      0.00000000	     -7.43814971	     -6.16891855	      3.90019418	     22.74691517	     44.33629186	      0.00000000	      0.00000000
     17.15571429	     -3.27200800	     -5.31621959	      4.80456180	      0.85021915	      0.92946908	      0.47880508	      2.18665165	      5.85654616	    -18.57793127	      9.22331933	      9.22331933	     12.77679700	      4.28425297	     -4.93108869	     32.18156764	     -8.21651964	     -0.61278684	     17.50962250	     17.50962250	      7.17361104	     -7.16391801	     10.67079228	     -8.57123025	      7.73806094	      4.65798968	     44.09045682	    -17.05293606	     -8.44592387	     77.34386254	     44.83040849	      0.00000000	      0.00000000	     -8.61826404	     -6.35716982	      5.01631645	     23.56164541	     44.15659394	      0.00000000	      0.00000000
     17.16785714	     -3.30571939	     -5.34340555	      5.00246867	      0.85001196	      0.92892548	      0.47775185	      1.46834232	      5.93992543	    -18.81253918	      8.73571445	      8.73571445	     13.01110135	      4.65477770	     -4.84673127	     32.19288259	     -7.97463549	     -1.04635342	     16.21909392	     16.21909392	      6.75023996	     -6.01668027	     10.78729752	     -8.41588072	      7.81827519	      4.48910967	     44.88600605	    -16.97914688	     -8.51985020	     78.23430603	     44.81662326	      0.00000000	      0.00000000	     -9.47752792	     -6.31352134	      5.29124602	     23.47942198	     44.10843119	      0.00000000	      0.00000000
     17.18000000	     -3.43335662	     -5.43906736	      5.14000789	      0.84971946	      0.92810687	      0.47670913	      1.00170833	      6.04343854	    -18.90494465	      8.51916584	      8.51916584	     13.29505947	      4.86203820	     -4.86458126	     32.42156397	     -7.82545081	     -1.43842518	     15.56125817	     15.56125817	      6.27962244	     -5.52038212	     10.95066034	     -8.15254684	      7.96936988	      4.50476757	     45.60856298	    -17.17770374	     -8.65625115	     78.76615271	     44.81010034	      0.00000000	      0.00000000	    -10.17979693	     -6.24836567	      5.36644777	     23.36971855	     44.08710201	      0.00000000	      0.00000000
     17.19214286	     -3.45860680	     -5.51317417	      5.28600680	      0.84961354	      0.92730070	      0.47559043	      0.48882395	      6.11119951	    -18.95705316	      8.47538894	      8.47538894	     13.69351065	      4.85822069	     -4.96488712	     32.59501877	     -7.68731895	     -1.80987849	     15.48620682	     15.48620682	      5.88762615	     -5.53417658	     11.09423979	     -7.90762836	      8.06925680	      4.60063997	     45.86286672	    -17.25829959	     -8.70671942	     78.93350944	     44.80800118	      0.00000000	      0.00000000	    -10.57015285	     -6.24766150	      5.37150810	     23.26731865	     44.07998743	      0.00000000	      0.00000000
